<svg
  viewBox="0 0 101 101"
  width="48px"
  height="48px"
  fill="none"
  xmlns="http://www.w3.org/2000/svg"
>
  <g fill="none" fill-rule="evenodd">
    <g>
      <g transform="translate(-27 -158) translate(27 158)">
        <text
          fill="#999999"
          font-family="NotoSansCJKkr-Bold, Noto Sans CJK KR"
          font-size="60"
          font-weight="bold"
        >
          <tspan x="42.2" y="73">!</tspan>
        </text>
      </g>
    </g>
  </g>
  <g clip-path="url(#clip0)">
    <path
      d="M50.5 0C40.5121 0 30.7484 2.96177 22.4437 8.51078C14.139 14.0598 7.66633 21.9468 3.84411 31.1745C0.0218807 40.4022 -0.978188 50.556 0.970366 60.3521C2.91892 70.1481 7.72858 79.1463 14.7911 86.2089C21.8537 93.2714 30.8519 98.0811 40.648 100.03C50.444 101.978 60.5979 100.978 69.8255 97.1559C79.0532 93.3337 86.9402 86.861 92.4892 78.5563C98.0382 70.2516 101 60.488 101 50.5C100.996 37.1079 95.6737 24.2656 86.2041 14.796C76.7344 5.32632 63.8921 0.00438869 50.5 0V0ZM50.5 92.7213C42.1494 92.7213 33.9864 90.2451 27.0431 85.6057C20.0999 80.9664 14.6882 74.3723 11.4926 66.6574C8.29699 58.9425 7.46086 50.4532 9.08998 42.263C10.7191 34.0729 14.7403 26.5498 20.645 20.645C26.5498 14.7403 34.0729 10.7191 42.263 9.08996C50.4532 7.46084 58.9425 8.29696 66.6574 11.4926C74.3724 14.6882 80.9664 20.0998 85.6058 27.0431C90.2451 33.9864 92.7213 42.1494 92.7213 50.5C92.7213 56.0446 91.6292 61.5349 89.5074 66.6574C87.3856 71.7799 84.2756 76.4344 80.355 80.355C76.4344 84.2756 71.7799 87.3856 66.6574 89.5074C61.5349 91.6292 56.0446 92.7213 50.5 92.7213V92.7213Z"
      fill="#999999"
    />
  </g>
  <defs>
    <clipPath id="clip0">
      <rect width="101" height="101" fill="white" />
    </clipPath>
  </defs>
</svg>
