<?xml version="1.0" encoding="utf-8"?>
<!-- Svg Vector Icons : http://www.onlinewebfonts.com/icon -->
<!DOCTYPE svg PUBLIC "-//W3C//DTD SVG 1.1//EN" "http://www.w3.org/Graphics/SVG/1.1/DTD/svg11.dtd">
<svg version="1.1" xmlns="http://www.w3.org/2000/svg" xmlns:xlink="http://www.w3.org/1999/xlink" x="0px" y="0px" viewBox="0 0 256 256" enable-background="new 0 0 256 256" xml:space="preserve">
<metadata> Svg Vector Icons : http://www.onlinewebfonts.com/icon </metadata>
<g><g><g><path fill="#000000" d="M16.5,28.5c-6.6,2.8-6.5,1.8-6.5,74.3c0,72.9-0.1,71.4,6.7,74.3c5.6,2.3,216.9,2.3,222.5,0c6.8-2.8,6.7-1.4,6.7-74.3c0-72.9,0.1-71.4-6.7-74.3C233.8,26.2,21.8,26.2,16.5,28.5z M229.1,102.8v59H128H26.9v-59v-59H128h101.1V102.8z"/><path fill="#000000" d="M94.3,203.6v8.2l-8.6,8.6l-8.7,8.7H128h51.1l-8.7-8.7l-8.6-8.6v-8.2v-8.1H128H94.3V203.6z"/></g></g></g>
</svg>