<?xml version="1.0" encoding="iso-8859-1"?>
<!-- Generator: Adobe Illustrator 19.0.0, SVG Export Plug-In . SVG Version: 6.00 Build 0)  -->
<svg version="1.1" id="Layer_1" xmlns="http://www.w3.org/2000/svg" xmlns:xlink="http://www.w3.org/1999/xlink" x="0px" y="0px"
	 viewBox="0 0 489.665 489.665" style="enable-background:new 0 0 489.665 489.665;" xml:space="preserve">
<g>
	<g>
		<g>
			<path d="M482.035,34.913H213.67c-4.214,0-7.631,3.415-7.631,7.63v122.231H7.631c-4.214,0-7.631,3.415-7.631,7.63v274.718
				c0,4.215,3.417,7.63,7.631,7.63h183.145c1.91,0,3.749-0.715,5.156-2.005l91.573-83.942c1.577-1.445,2.475-3.485,2.475-5.625
				v-38.155h192.054c4.214,0,7.631-3.415,7.631-7.63V42.543C489.666,38.328,486.249,34.913,482.035,34.913z M198.408,429.776
				v-58.965h64.325L198.408,429.776z M274.718,210.562h-30.525c-4.214,0-7.631,3.415-7.631,7.63c0,4.215,3.417,7.63,7.631,7.63
				h30.525v129.729h-83.942c-4.214,0-7.631,3.415-7.631,7.63v76.311H15.262v-213.67h167.883c4.214,0,7.631-3.415,7.631-7.63
				c0-4.215-3.417-7.63-7.631-7.63H15.262v-30.526h259.456V210.562z M474.404,80.699H328.135c-4.214,0-7.631,3.415-7.631,7.63
				c0,4.215,3.417,7.63,7.631,7.63h146.268v213.806H289.98V172.404c0-4.215-3.417-7.63-7.631-7.63h-61.048V95.959h45.786
				c4.214,0,7.631-3.415,7.631-7.63c0-4.215-3.417-7.63-7.631-7.63h-45.786V50.174h253.103V80.699z"/>
			<path d="M45.786,263.979c0,4.215,3.417,7.63,7.631,7.63h183.145c4.214,0,7.631-3.415,7.631-7.63c0-4.215-3.417-7.63-7.631-7.63
				H53.417C49.203,256.349,45.786,259.764,45.786,263.979z"/>
			<path d="M236.562,302.134H53.417c-4.214,0-7.631,3.415-7.631,7.63c0,4.215,3.417,7.63,7.631,7.63h183.145
				c4.214,0,7.631-3.415,7.631-7.63C244.193,305.549,240.776,302.134,236.562,302.134z"/>
			<path d="M144.99,347.921H53.417c-4.214,0-7.631,3.415-7.631,7.63c0,4.215,3.417,7.63,7.631,7.63h91.573
				c4.214,0,7.631-3.415,7.631-7.63C152.621,351.336,149.204,347.921,144.99,347.921z"/>
			<path d="M144.99,393.707H53.417c-4.214,0-7.631,3.415-7.631,7.63c0,4.215,3.417,7.63,7.631,7.63h91.573
				c4.214,0,7.631-3.415,7.631-7.63C152.621,397.122,149.204,393.707,144.99,393.707z"/>
			<path d="M251.825,134.115c0,4.215,3.417,7.63,7.631,7.63h175.515c4.214,0,7.631-3.415,7.631-7.63c0-4.215-3.417-7.63-7.631-7.63
				H259.456C255.242,126.485,251.825,129.9,251.825,134.115z"/>
			<path d="M434.971,172.272H320.504c-4.214,0-7.631,3.415-7.631,7.63c0,4.215,3.417,7.63,7.631,7.63H434.97
				c4.214,0,7.631-3.415,7.631-7.63C442.602,175.687,439.185,172.272,434.971,172.272z"/>
			<path d="M434.971,218.191H320.504c-4.214,0-7.631,3.415-7.631,7.63s3.417,7.63,7.631,7.63H434.97c4.214,0,7.631-3.415,7.631-7.63
				C442.602,221.607,439.185,218.191,434.971,218.191z"/>
			<path d="M434.971,264.112H320.504c-4.214,0-7.631,3.415-7.631,7.63c0,4.215,3.417,7.63,7.631,7.63H434.97
				c4.214,0,7.631-3.415,7.631-7.63C442.601,267.527,439.185,264.112,434.971,264.112z"/>
		</g>
	</g>
</g>
<g>
</g>
<g>
</g>
<g>
</g>
<g>
</g>
<g>
</g>
<g>
</g>
<g>
</g>
<g>
</g>
<g>
</g>
<g>
</g>
<g>
</g>
<g>
</g>
<g>
</g>
<g>
</g>
<g>
</g>
</svg>
