<svg class="svg-icon" style="width: 23px; height: 23px;vertical-align: middle;overflow: hidden;" viewBox="0 0 1024 1024" version="1.1" xmlns="http://www.w3.org/2000/svg"><path d="M800 226.6l-160 0 0-40c0-32.4-26.2-58.6-58.6-58.6l-139 0C410.2 128 384 154.2 384 186.6l0 40-160 0L224 256l42.2 0 47.2 581.4c0 32.4 26.2 58.6 58.6 58.6l282 0c32.4 0 58.6-26.2 58.6-58.6L759.2 256 800 256 800 226.6zM413.2 186.6c0-16.2 13.2-29.4 29.2-29.4l139 0c16.2 0 29.2 13.2 29.2 29.4l0 40-197.4 0L413.2 186.6zM683.2 835.8l0 0.8 0 0.8c0 16.2-13.2 29.4-29.2 29.4L372 866.8c-16.2 0-29.2-13.2-29.2-29.4l0-0.8 0-0.8L295.4 256l434.4 0L683.2 835.8z"  /><path d="M498 320l28 0 0 482-28 0 0-482Z"  /><path d="M640 320 610.8 320 589.4 802 618.6 802Z"  /><path d="M413 320 384 320 405.4 802 434.6 802Z"  /></svg>