<svg xmlns="http://www.w3.org/2000/svg" viewBox="0 0 23 23" fill="none" x="0px" y="0px"><path d="M11.5 1C11.7761 1 12 1.22386 12 1.5V3.5C12 3.77614 11.7761 4 11.5 4C11.2239 4 11 3.77614 11 3.5V1.5C11 1.22386 11.2239 1 11.5 1Z" fill="black"/><path fill-rule="evenodd" clip-rule="evenodd" d="M18 11.5C18 7.91015 15.0899 5 11.5 5C7.91015 5 5 7.91015 5 11.5C5 15.0899 7.91015 18 11.5 18C15.0899 18 18 15.0899 18 11.5ZM16.9776 11C16.9466 10.6567 16.8842 10.3225 16.7931 10.0003L6.20694 10.0003C6.11584 10.3225 6.05336 10.6567 6.02242 11L16.9776 11ZM16.4004 9.00031C16.2175 8.64246 15.9966 8.30729 15.7429 8.00012L7.25706 8.00013C7.0034 8.30729 6.78245 8.64247 6.59955 9.00032L16.4004 9.00031ZM8.33674 7.00013L14.6633 7.00012C13.7685 6.37002 12.6775 6 11.5 6C10.3225 6 9.23145 6.37002 8.33674 7.00013ZM6.02242 12C6.05339 12.3436 6.11597 12.6782 6.20722 13.0007L16.7928 13.0007C16.884 12.6782 16.9466 12.3436 16.9776 12L6.02242 12ZM6.60006 14.0007C6.78306 14.3585 7.00411 14.6937 7.25788 15.0009L15.7421 15.0009C15.9959 14.6937 16.2169 14.3585 16.3999 14.0007L6.60006 14.0007ZM14.6619 16.0009L8.33815 16.0009C9.23259 16.6304 10.3231 17 11.5 17C12.6769 17 13.7674 16.6304 14.6619 16.0009Z" fill="black"/><path d="M12 19.5C12 19.2239 11.7761 19 11.5 19C11.2239 19 11 19.2239 11 19.5V21.5C11 21.7761 11.2239 22 11.5 22C11.7761 22 12 21.7761 12 21.5V19.5Z" fill="black"/><path d="M22 11.5C22 11.7761 21.7761 12 21.5 12H19.5C19.2239 12 19 11.7761 19 11.5C19 11.2239 19.2239 11 19.5 11H21.5C21.7761 11 22 11.2239 22 11.5Z" fill="black"/><path d="M3.5 12C3.77614 12 4 11.7761 4 11.5C4 11.2239 3.77614 11 3.5 11H1.5C1.22386 11 1 11.2239 1 11.5C1 11.7761 1.22386 12 1.5 12H3.5Z" fill="black"/><path d="M18.9246 4.07536C19.1199 4.27062 19.1199 4.5872 18.9246 4.78246L17.5104 6.19668C17.3151 6.39194 16.9985 6.39194 16.8033 6.19668C16.608 6.00141 16.608 5.68483 16.8033 5.48957L18.2175 4.07536C18.4128 3.88009 18.7293 3.88009 18.9246 4.07536Z" fill="black"/><path d="M6.19669 17.5104C6.39196 17.3151 6.39196 16.9985 6.19669 16.8033C6.00143 16.608 5.68485 16.608 5.48959 16.8033L4.07537 18.2175C3.88011 18.4127 3.88011 18.7293 4.07537 18.9246C4.27063 19.1198 4.58722 19.1198 4.78248 18.9246L6.19669 17.5104Z" fill="black"/><path d="M18.9246 18.9246C18.7294 19.1199 18.4128 19.1199 18.2175 18.9246L16.8033 17.5104C16.6081 17.3151 16.6081 16.9985 16.8033 16.8033C16.9986 16.608 17.3152 16.608 17.5104 16.8033L18.9246 18.2175C19.1199 18.4128 19.1199 18.7293 18.9246 18.9246Z" fill="black"/><path d="M5.48963 6.19669C5.6849 6.39196 6.00148 6.39196 6.19674 6.19669C6.392 6.00143 6.392 5.68485 6.19674 5.48959L4.78253 4.07537C4.58726 3.88011 4.27068 3.88011 4.07542 4.07537C3.88016 4.27063 3.88016 4.58722 4.07542 4.78248L5.48963 6.19669Z" fill="black"/><text x="0" y="39" fill="#000000" font-size="5px" font-weight="bold" font-family="'Helvetica Neue', Helvetica, Arial-Unicode, Arial, Sans-serif">Created by Travis Avery</text><text x="0" y="44" fill="#000000" font-size="5px" font-weight="bold" font-family="'Helvetica Neue', Helvetica, Arial-Unicode, Arial, Sans-serif">from the Noun Project</text></svg>